<svg xmlns="http://www.w3.org/2000/svg" xmlns:xlink="http://www.w3.org/1999/xlink" width="180" zoomAndPan="magnify" viewBox="0 0 135 38.249999" height="51" preserveAspectRatio="xMidYMid meet" version="1.0"><defs><g/></defs><g fill="#790000" fill-opacity="1"><g transform="translate(27.983048, 12.471612)"><g><path d="M 1.257812 0 L 2.941406 0 L 2.941406 -7.292969 L 5.355469 -0.847656 L 7.054688 -0.847656 L 9.46875 -7.292969 L 9.46875 0 L 11.152344 0 L 11.152344 -9.75 L 8.792969 -9.75 L 6.203125 -2.816406 L 3.617188 -9.75 L 1.257812 -9.75 Z M 1.257812 0 "/></g></g></g><g fill="#790000" fill-opacity="1"><g transform="translate(40.772716, 12.471612)"><g><path d="M 0.960938 -8.199219 L 2.710938 -8.199219 L 2.710938 -9.75 L 0.960938 -9.75 Z M 1 0 L 2.671875 0 L 2.671875 -6.894531 L 1 -6.894531 Z M 1 0 "/></g></g></g><g fill="#790000" fill-opacity="1"><g transform="translate(44.825693, 12.471612)"><g><path d="M 3.734375 0.136719 C 5.101562 0.136719 6.175781 -0.621094 6.632812 -1.90625 L 5.101562 -2.484375 C 4.921875 -1.835938 4.394531 -1.386719 3.71875 -1.386719 C 2.546875 -1.386719 2.105469 -2.386719 2.105469 -3.4375 C 2.105469 -4.464844 2.558594 -5.515625 3.71875 -5.515625 C 4.410156 -5.515625 4.921875 -5.042969 5.101562 -4.382812 L 6.699219 -5.003906 C 6.175781 -6.375 5.085938 -7.039062 3.71875 -7.039062 C 1.46875 -7.039062 0.394531 -5.246094 0.394531 -3.4375 C 0.394531 -1.609375 1.484375 0.136719 3.734375 0.136719 Z M 3.734375 0.136719 "/></g></g></g><g fill="#790000" fill-opacity="1"><g transform="translate(52.135953, 12.471612)"><g><path d="M 1.015625 0 L 2.726562 0 L 2.726562 -3.492188 C 2.726562 -4.636719 3.238281 -5.515625 4.3125 -5.515625 C 5.328125 -5.515625 5.554688 -4.777344 5.554688 -3.925781 L 5.554688 0 L 7.265625 0 L 7.265625 -4.140625 C 7.265625 -5.582031 6.527344 -7.039062 4.71875 -7.039062 C 4.042969 -7.039062 3.277344 -6.769531 2.726562 -6.09375 L 2.726562 -9.75 L 1.015625 -9.75 Z M 1.015625 0 "/></g></g></g><g fill="#790000" fill-opacity="1"><g transform="translate(60.584881, 12.471612)"><g><path d="M 0.71875 -5.90625 L 1.835938 -5.90625 L 3.574219 -9.75 L 1.671875 -9.75 Z M 0.71875 -5.90625 "/></g></g></g><g fill="#790000" fill-opacity="1"><g transform="translate(64.920803, 12.471612)"><g><path d="M 3.078125 0.136719 C 4.382812 0.136719 5.769531 -0.566406 5.769531 -2.160156 C 5.769531 -4.691406 2.261719 -4.070312 2.261719 -5.113281 C 2.261719 -5.4375 2.601562 -5.707031 3.152344 -5.707031 C 3.898438 -5.707031 4.285156 -5.257812 4.519531 -4.832031 L 5.824219 -5.542969 C 5.300781 -6.472656 4.394531 -7.039062 3.210938 -7.039062 C 1.878906 -7.039062 0.648438 -6.347656 0.648438 -4.894531 C 0.648438 -2.457031 4.113281 -3.238281 4.113281 -2.078125 C 4.113281 -1.710938 3.773438 -1.257812 2.996094 -1.257812 C 2.078125 -1.257812 1.710938 -1.890625 1.523438 -2.386719 L 0.1875 -1.792969 C 0.523438 -0.730469 1.628906 0.136719 3.078125 0.136719 Z M 3.078125 0.136719 "/></g></g></g><g fill="#790000" fill-opacity="1"><g transform="translate(71.578608, 12.471612)"><g/></g></g><g fill="#790000" fill-opacity="1"><g transform="translate(27.983048, 27.239458)"><g><path d="M 1.257812 0 L 3.007812 0 L 3.007812 -2.53125 L 4.988281 -4.582031 L 8 0 L 10.179688 0 L 6.203125 -5.753906 L 10.101562 -9.75 L 7.757812 -9.75 L 3.007812 -4.664062 L 3.007812 -9.75 L 1.257812 -9.75 Z M 1.257812 0 "/></g></g></g><g fill="#790000" fill-opacity="1"><g transform="translate(38.654105, 27.239458)"><g><path d="M 0.960938 -8.199219 L 2.710938 -8.199219 L 2.710938 -9.75 L 0.960938 -9.75 Z M 1 0 L 2.671875 0 L 2.671875 -6.894531 L 1 -6.894531 Z M 1 0 "/></g></g></g><g fill="#790000" fill-opacity="1"><g transform="translate(42.707082, 27.239458)"><g><path d="M 3.449219 0.136719 C 3.925781 0.136719 4.4375 0.0273438 4.691406 -0.0703125 L 4.691406 -1.59375 C 4.464844 -1.484375 4.085938 -1.347656 3.734375 -1.347656 C 3.292969 -1.347656 2.953125 -1.539062 2.953125 -2.203125 L 2.953125 -5.488281 L 4.691406 -5.488281 L 4.691406 -6.894531 L 2.953125 -6.894531 L 2.953125 -9.804688 L 1.3125 -8.605469 L 1.3125 -6.894531 L 0.171875 -6.894531 L 0.171875 -5.488281 L 1.285156 -5.488281 L 1.285156 -1.90625 C 1.285156 -0.648438 2.089844 0.136719 3.449219 0.136719 Z M 3.449219 0.136719 "/></g></g></g><g fill="#790000" fill-opacity="1"><g transform="translate(48.292086, 27.239458)"><g><path d="M 3.734375 0.136719 C 5.101562 0.136719 6.175781 -0.621094 6.632812 -1.90625 L 5.101562 -2.484375 C 4.921875 -1.835938 4.394531 -1.386719 3.71875 -1.386719 C 2.546875 -1.386719 2.105469 -2.386719 2.105469 -3.4375 C 2.105469 -4.464844 2.558594 -5.515625 3.71875 -5.515625 C 4.410156 -5.515625 4.921875 -5.042969 5.101562 -4.382812 L 6.699219 -5.003906 C 6.175781 -6.375 5.085938 -7.039062 3.71875 -7.039062 C 1.46875 -7.039062 0.394531 -5.246094 0.394531 -3.4375 C 0.394531 -1.609375 1.484375 0.136719 3.734375 0.136719 Z M 3.734375 0.136719 "/></g></g></g><g fill="#790000" fill-opacity="1"><g transform="translate(55.602344, 27.239458)"><g><path d="M 1.015625 0 L 2.726562 0 L 2.726562 -3.492188 C 2.726562 -4.636719 3.238281 -5.515625 4.3125 -5.515625 C 5.328125 -5.515625 5.554688 -4.777344 5.554688 -3.925781 L 5.554688 0 L 7.265625 0 L 7.265625 -4.140625 C 7.265625 -5.582031 6.527344 -7.039062 4.71875 -7.039062 C 4.042969 -7.039062 3.277344 -6.769531 2.726562 -6.09375 L 2.726562 -9.75 L 1.015625 -9.75 Z M 1.015625 0 "/></g></g></g><g fill="#790000" fill-opacity="1"><g transform="translate(64.051272, 27.239458)"><g><path d="M 3.871094 0.136719 C 5.03125 0.136719 5.949219 -0.269531 6.699219 -1.105469 L 5.542969 -2.117188 C 5.058594 -1.582031 4.507812 -1.386719 3.886719 -1.386719 C 2.800781 -1.386719 2.304688 -1.996094 2.160156 -2.898438 L 6.894531 -2.898438 C 6.929688 -2.996094 6.957031 -3.277344 6.957031 -3.5625 C 6.957031 -5.101562 6.175781 -7.039062 3.761719 -7.039062 C 1.429688 -7.039062 0.378906 -5.21875 0.378906 -3.421875 C 0.378906 -1.566406 1.496094 0.136719 3.871094 0.136719 Z M 2.160156 -4.113281 C 2.320312 -4.976562 2.753906 -5.625 3.746094 -5.625 C 4.625 -5.625 5.191406 -5.101562 5.300781 -4.113281 Z M 2.160156 -4.113281 "/></g></g></g><g fill="#790000" fill-opacity="1"><g transform="translate(71.796296, 27.239458)"><g><path d="M 1 0 L 2.671875 0 L 2.671875 -3.773438 C 2.671875 -4.976562 3.277344 -5.488281 4.222656 -5.488281 C 5.085938 -5.488281 5.542969 -4.832031 5.542969 -3.925781 L 5.542969 0 L 7.203125 0 L 7.203125 -4.140625 C 7.203125 -5.582031 6.515625 -7.039062 4.707031 -7.039062 C 4.03125 -7.039062 3.222656 -6.769531 2.671875 -6.09375 L 2.671875 -6.894531 L 1 -6.894531 Z M 1 0 "/></g></g></g><g fill="#a80000" fill-opacity="1"><g transform="translate(27.983048, 36.476566)"><g><path d="M 0.359375 0 L 0.722656 0 L 0.722656 -1.109375 L 1.113281 -1.109375 C 1.625 -1.109375 1.972656 -1.363281 1.972656 -1.828125 C 1.972656 -2.289062 1.625 -2.558594 1.113281 -2.558594 L 0.359375 -2.558594 Z M 0.722656 -1.449219 L 0.722656 -2.222656 L 1.113281 -2.222656 C 1.441406 -2.222656 1.609375 -2.074219 1.609375 -1.828125 C 1.609375 -1.578125 1.445312 -1.449219 1.113281 -1.449219 Z M 0.722656 -1.449219 "/></g></g></g><g fill="#a80000" fill-opacity="1"><g transform="translate(30.966667, 36.476566)"><g><path d="M 0.0703125 0 L 0.472656 0 L 0.667969 -0.554688 L 1.730469 -0.554688 L 1.925781 0 L 2.324219 0 L 1.339844 -2.558594 L 1.0625 -2.558594 Z M 0.792969 -0.878906 L 1.203125 -2.015625 L 1.605469 -0.878906 Z M 0.792969 -0.878906 "/></g></g></g><g fill="#a80000" fill-opacity="1"><g transform="translate(34.250725, 36.476566)"><g><path d="M 1.046875 0.0273438 C 1.515625 0.0273438 1.886719 -0.261719 1.886719 -0.722656 C 1.886719 -1.558594 0.652344 -1.414062 0.652344 -1.945312 C 0.652344 -2.144531 0.824219 -2.269531 1.019531 -2.269531 C 1.210938 -2.269531 1.382812 -2.175781 1.480469 -1.988281 L 1.773438 -2.171875 C 1.605469 -2.464844 1.335938 -2.59375 1.03125 -2.59375 C 0.625 -2.59375 0.289062 -2.339844 0.289062 -1.921875 C 0.289062 -1.117188 1.523438 -1.292969 1.523438 -0.691406 C 1.523438 -0.445312 1.339844 -0.296875 1.050781 -0.296875 C 0.761719 -0.296875 0.507812 -0.449219 0.472656 -0.78125 L 0.117188 -0.6875 C 0.195312 -0.207031 0.613281 0.0273438 1.046875 0.0273438 Z M 1.046875 0.0273438 "/></g></g></g><g fill="#a80000" fill-opacity="1"><g transform="translate(37.172808, 36.476566)"><g><path d="M 0.910156 0 L 1.277344 0 L 1.277344 -2.238281 L 2.113281 -2.238281 L 2.113281 -2.558594 L 0.0742188 -2.558594 L 0.0742188 -2.238281 L 0.910156 -2.238281 Z M 0.910156 0 "/></g></g></g><g fill="#a80000" fill-opacity="1"><g transform="translate(40.248731, 36.476566)"><g><path d="M 0.359375 0.00390625 L 0.726562 0.00390625 L 0.726562 -1.121094 L 1.09375 -1.121094 L 1.726562 0.00390625 L 2.152344 0.00390625 L 1.453125 -1.160156 C 1.761719 -1.246094 1.976562 -1.492188 1.976562 -1.824219 C 1.976562 -2.285156 1.597656 -2.554688 1.136719 -2.554688 L 0.359375 -2.554688 Z M 0.730469 -1.4375 L 0.730469 -2.226562 L 1.136719 -2.226562 C 1.421875 -2.226562 1.613281 -2.074219 1.613281 -1.824219 C 1.613281 -1.585938 1.4375 -1.449219 1.179688 -1.4375 Z M 0.730469 -1.4375 "/></g></g></g><g fill="#a80000" fill-opacity="1"><g transform="translate(43.386189, 36.476566)"><g><path d="M 1.007812 0 L 1.382812 0 L 1.382812 -1 L 2.335938 -2.558594 L 1.894531 -2.558594 L 1.1875 -1.359375 L 0.488281 -2.558594 L 0.0507812 -2.558594 L 1.007812 -1 Z M 1.007812 0 "/></g></g></g><g fill="#a80000" fill-opacity="1"><g transform="translate(46.659389, 36.476566)"><g/></g></g><g fill="#a80000" fill-opacity="1"><g transform="translate(48.486497, 36.476566)"><g><path d="M 0.359375 0 L 0.722656 0 L 0.722656 -1.109375 L 1.113281 -1.109375 C 1.625 -1.109375 1.972656 -1.363281 1.972656 -1.828125 C 1.972656 -2.289062 1.625 -2.558594 1.113281 -2.558594 L 0.359375 -2.558594 Z M 0.722656 -1.449219 L 0.722656 -2.222656 L 1.113281 -2.222656 C 1.441406 -2.222656 1.609375 -2.074219 1.609375 -1.828125 C 1.609375 -1.578125 1.445312 -1.449219 1.113281 -1.449219 Z M 0.722656 -1.449219 "/></g></g></g><g fill="#a80000" fill-opacity="1"><g transform="translate(51.470115, 36.476566)"><g><path d="M 0.359375 0.00390625 L 0.726562 0.00390625 L 0.726562 -1.121094 L 1.09375 -1.121094 L 1.726562 0.00390625 L 2.152344 0.00390625 L 1.453125 -1.160156 C 1.761719 -1.246094 1.976562 -1.492188 1.976562 -1.824219 C 1.976562 -2.285156 1.597656 -2.554688 1.136719 -2.554688 L 0.359375 -2.554688 Z M 0.730469 -1.4375 L 0.730469 -2.226562 L 1.136719 -2.226562 C 1.421875 -2.226562 1.613281 -2.074219 1.613281 -1.824219 C 1.613281 -1.585938 1.4375 -1.449219 1.179688 -1.4375 Z M 0.730469 -1.4375 "/></g></g></g><g fill="#a80000" fill-opacity="1"><g transform="translate(54.607572, 36.476566)"><g><path d="M 1.375 0.0351562 C 2.1875 0.0351562 2.566406 -0.574219 2.566406 -1.28125 C 2.566406 -1.980469 2.1875 -2.59375 1.375 -2.59375 C 0.566406 -2.59375 0.1875 -1.980469 0.1875 -1.28125 C 0.1875 -0.574219 0.566406 0.0351562 1.375 0.0351562 Z M 1.375 -0.296875 C 0.789062 -0.296875 0.566406 -0.761719 0.566406 -1.28125 C 0.566406 -1.796875 0.789062 -2.261719 1.375 -2.261719 C 1.960938 -2.261719 2.191406 -1.796875 2.191406 -1.28125 C 2.191406 -0.761719 1.960938 -0.296875 1.375 -0.296875 Z M 1.375 -0.296875 "/></g></g></g><g fill="#a80000" fill-opacity="1"><g transform="translate(58.249985, 36.476566)"><g><path d="M 0.359375 0 L 0.726562 0 L 0.726562 -1.117188 L 1.921875 -1.117188 L 1.921875 -1.441406 L 0.726562 -1.441406 L 0.726562 -2.226562 L 2.078125 -2.226562 L 2.078125 -2.558594 L 0.359375 -2.558594 Z M 0.359375 0 "/></g></g></g><g fill="#a80000" fill-opacity="1"><g transform="translate(61.336766, 36.476566)"><g><path d="M 0.359375 0 L 2.035156 0 L 2.035156 -0.34375 L 0.726562 -0.34375 L 0.726562 -1.117188 L 1.898438 -1.117188 L 1.898438 -1.441406 L 0.726562 -1.441406 L 0.726562 -2.226562 L 2.035156 -2.226562 L 2.035156 -2.558594 L 0.359375 -2.558594 Z M 0.359375 0 "/></g></g></g><g fill="#a80000" fill-opacity="1"><g transform="translate(64.474224, 36.476566)"><g><path d="M 1.046875 0.0273438 C 1.515625 0.0273438 1.886719 -0.261719 1.886719 -0.722656 C 1.886719 -1.558594 0.652344 -1.414062 0.652344 -1.945312 C 0.652344 -2.144531 0.824219 -2.269531 1.019531 -2.269531 C 1.210938 -2.269531 1.382812 -2.175781 1.480469 -1.988281 L 1.773438 -2.171875 C 1.605469 -2.464844 1.335938 -2.59375 1.03125 -2.59375 C 0.625 -2.59375 0.289062 -2.339844 0.289062 -1.921875 C 0.289062 -1.117188 1.523438 -1.292969 1.523438 -0.691406 C 1.523438 -0.445312 1.339844 -0.296875 1.050781 -0.296875 C 0.761719 -0.296875 0.507812 -0.449219 0.472656 -0.78125 L 0.117188 -0.6875 C 0.195312 -0.207031 0.613281 0.0273438 1.046875 0.0273438 Z M 1.046875 0.0273438 "/></g></g></g><g fill="#a80000" fill-opacity="1"><g transform="translate(67.396306, 36.476566)"><g><path d="M 1.046875 0.0273438 C 1.515625 0.0273438 1.886719 -0.261719 1.886719 -0.722656 C 1.886719 -1.558594 0.652344 -1.414062 0.652344 -1.945312 C 0.652344 -2.144531 0.824219 -2.269531 1.019531 -2.269531 C 1.210938 -2.269531 1.382812 -2.175781 1.480469 -1.988281 L 1.773438 -2.171875 C 1.605469 -2.464844 1.335938 -2.59375 1.03125 -2.59375 C 0.625 -2.59375 0.289062 -2.339844 0.289062 -1.921875 C 0.289062 -1.117188 1.523438 -1.292969 1.523438 -0.691406 C 1.523438 -0.445312 1.339844 -0.296875 1.050781 -0.296875 C 0.761719 -0.296875 0.507812 -0.449219 0.472656 -0.78125 L 0.117188 -0.6875 C 0.195312 -0.207031 0.613281 0.0273438 1.046875 0.0273438 Z M 1.046875 0.0273438 "/></g></g></g><g fill="#a80000" fill-opacity="1"><g transform="translate(70.318391, 36.476566)"><g><path d="M 0.359375 0 L 0.726562 0 L 0.726562 -2.558594 L 0.359375 -2.558594 Z M 0.359375 0 "/></g></g></g><g fill="#a80000" fill-opacity="1"><g transform="translate(72.292099, 36.476566)"><g><path d="M 1.375 0.0351562 C 2.1875 0.0351562 2.566406 -0.574219 2.566406 -1.28125 C 2.566406 -1.980469 2.1875 -2.59375 1.375 -2.59375 C 0.566406 -2.59375 0.1875 -1.980469 0.1875 -1.28125 C 0.1875 -0.574219 0.566406 0.0351562 1.375 0.0351562 Z M 1.375 -0.296875 C 0.789062 -0.296875 0.566406 -0.761719 0.566406 -1.28125 C 0.566406 -1.796875 0.789062 -2.261719 1.375 -2.261719 C 1.960938 -2.261719 2.191406 -1.796875 2.191406 -1.28125 C 2.191406 -0.761719 1.960938 -0.296875 1.375 -0.296875 Z M 1.375 -0.296875 "/></g></g></g><g fill="#a80000" fill-opacity="1"><g transform="translate(75.934515, 36.476566)"><g><path d="M 0.359375 0 L 0.714844 0 L 0.714844 -2.039062 L 1.800781 0 L 2.238281 0 L 2.238281 -2.558594 L 1.878906 -2.558594 L 1.878906 -0.519531 L 0.792969 -2.558594 L 0.359375 -2.558594 Z M 0.359375 0 "/></g></g></g><g fill="#a80000" fill-opacity="1"><g transform="translate(79.421281, 36.476566)"><g><path d="M 0.0703125 0 L 0.472656 0 L 0.667969 -0.554688 L 1.730469 -0.554688 L 1.925781 0 L 2.324219 0 L 1.339844 -2.558594 L 1.0625 -2.558594 Z M 0.792969 -0.878906 L 1.203125 -2.015625 L 1.605469 -0.878906 Z M 0.792969 -0.878906 "/></g></g></g><g fill="#a80000" fill-opacity="1"><g transform="translate(82.705341, 36.476566)"><g><path d="M 0.359375 0 L 1.820312 0 L 1.820312 -0.34375 L 0.726562 -0.34375 L 0.726562 -2.558594 L 0.359375 -2.558594 Z M 0.359375 0 "/></g></g></g><g fill="#a80000" fill-opacity="1"><g transform="translate(85.493495, 36.476566)"><g><path d="M 0.359375 0 L 0.726562 0 L 0.726562 -2.558594 L 0.359375 -2.558594 Z M 0.359375 0 "/></g></g></g><g fill="#a80000" fill-opacity="1"><g transform="translate(87.467204, 36.476566)"><g><path d="M 1.046875 0.0273438 C 1.515625 0.0273438 1.886719 -0.261719 1.886719 -0.722656 C 1.886719 -1.558594 0.652344 -1.414062 0.652344 -1.945312 C 0.652344 -2.144531 0.824219 -2.269531 1.019531 -2.269531 C 1.210938 -2.269531 1.382812 -2.175781 1.480469 -1.988281 L 1.773438 -2.171875 C 1.605469 -2.464844 1.335938 -2.59375 1.03125 -2.59375 C 0.625 -2.59375 0.289062 -2.339844 0.289062 -1.921875 C 0.289062 -1.117188 1.523438 -1.292969 1.523438 -0.691406 C 1.523438 -0.445312 1.339844 -0.296875 1.050781 -0.296875 C 0.761719 -0.296875 0.507812 -0.449219 0.472656 -0.78125 L 0.117188 -0.6875 C 0.195312 -0.207031 0.613281 0.0273438 1.046875 0.0273438 Z M 1.046875 0.0273438 "/></g></g></g><g fill="#a80000" fill-opacity="1"><g transform="translate(90.389288, 36.476566)"><g><path d="M 0.910156 0 L 1.277344 0 L 1.277344 -2.238281 L 2.113281 -2.238281 L 2.113281 -2.558594 L 0.0742188 -2.558594 L 0.0742188 -2.238281 L 0.910156 -2.238281 Z M 0.910156 0 "/></g></g></g></svg>